<?xml version="1.0" encoding="UTF-8" standalone="no"?>
<!-- Created with Inkscape (http://www.inkscape.org/) -->

<svg
   xmlns:dc="http://purl.org/dc/elements/1.1/"
   xmlns:cc="http://creativecommons.org/ns#"
   xmlns:rdf="http://www.w3.org/1999/02/22-rdf-syntax-ns#"
   xmlns:svg="http://www.w3.org/2000/svg"
   xmlns="http://www.w3.org/2000/svg"
   xmlns:sodipodi="http://sodipodi.sourceforge.net/DTD/sodipodi-0.dtd"
   xmlns:inkscape="http://www.inkscape.org/namespaces/inkscape"
   width="1000"
   height="1000"
   viewBox="0 0 264.58333 264.58334"
   version="1.1"
   id="svg8"
   inkscape:version="0.92.4 (5da689c313, 2019-01-14)"
   sodipodi:docname="EAP talk.svg">
  <defs
     id="defs2" />
  <sodipodi:namedview
     id="base"
     pagecolor="#ffffff"
     bordercolor="#666666"
     borderopacity="1.0"
     inkscape:pageopacity="0.0"
     inkscape:pageshadow="2"
     inkscape:zoom="0.7"
     inkscape:cx="532.74334"
     inkscape:cy="480.61242"
     inkscape:document-units="px"
     inkscape:current-layer="layer1"
     showgrid="false"
     units="px"
     inkscape:window-width="1838"
     inkscape:window-height="1051"
     inkscape:window-x="82"
     inkscape:window-y="0"
     inkscape:window-maximized="1" />
  <metadata
     id="metadata5">
    <rdf:RDF>
      <cc:Work
         rdf:about="">
        <dc:format>image/svg+xml</dc:format>
        <dc:type
           rdf:resource="http://purl.org/dc/dcmitype/StillImage" />
        <dc:title></dc:title>
      </cc:Work>
    </rdf:RDF>
  </metadata>
  <g
     inkscape:label="Layer 1"
     inkscape:groupmode="layer"
     id="layer1"
     transform="translate(0,-32.416653)">
    <path
       style="stroke-width:0.9194383;fill:#ffffff"
       d="M 500 200 L 0 350 L 500 500 L 845 396.5 L 845 570.85938 A 37.5 37.5 0 0 0 826.21484 603.30078 A 37.5 37.5 0 0 0 843.76953 635.00391 L 805 746.91992 A 120 200 0 0 0 925 746.91992 L 885.74219 633.5918 A 37.5 37.5 0 0 0 901.21484 603.30078 A 37.5 37.5 0 0 0 882.14258 570.66602 L 882.14258 385.35742 L 1000 350 L 500 200 z M 250 475 L 250 655 A 250.00001 75 0 0 0 500 730 A 250.00001 75 0 0 0 750 655 L 750 475 L 500 550 L 250 475 z "
       transform="matrix(0.26458333,0,0,0.26458333,0,32.416653)"
       id="rect3724" />
  </g>
</svg>
